<svg width="72" height="73" viewBox="0 0 72 73" fill="none" xmlns="http://www.w3.org/2000/svg">
<path d="M15.75 0.0241089C16.3467 0.0241089 16.919 0.261162 17.341 0.683119C17.7629 1.10508 18 1.67737 18 2.27411V4.52411H54V2.27411C54 1.67737 54.2371 1.10508 54.659 0.683119C55.081 0.261162 55.6533 0.0241089 56.25 0.0241089C56.8467 0.0241089 57.419 0.261162 57.841 0.683119C58.2629 1.10508 58.5 1.67737 58.5 2.27411V4.52411H63C65.3869 4.52411 67.6761 5.47232 69.364 7.16015C71.0518 8.84798 72 11.1372 72 13.5241V63.0241C72 65.4111 71.0518 67.7002 69.364 69.3881C67.6761 71.0759 65.3869 72.0241 63 72.0241H9C6.61305 72.0241 4.32387 71.0759 2.63604 69.3881C0.948212 67.7002 0 65.4111 0 63.0241V13.5241C0 11.1372 0.948212 8.84798 2.63604 7.16015C4.32387 5.47232 6.61305 4.52411 9 4.52411H13.5V2.27411C13.5 1.67737 13.7371 1.10508 14.159 0.683119C14.581 0.261162 15.1533 0.0241089 15.75 0.0241089V0.0241089ZM4.5 18.0241V63.0241C4.5 64.2176 4.97411 65.3622 5.81802 66.2061C6.66193 67.05 7.80653 67.5241 9 67.5241H63C64.1935 67.5241 65.3381 67.05 66.182 66.2061C67.0259 65.3622 67.5 64.2176 67.5 63.0241V18.0241H4.5Z" fill="#004D7D"/>
</svg>
