<svg width="96" height="77" viewBox="0 0 96 77" fill="none" xmlns="http://www.w3.org/2000/svg">
<path d="M3.6 9.6001H12V67.2001H3.6C1.605 67.2001 0 65.5951 0 63.6001C0 61.6051 1.605 60.0001 3.6 60.0001H4.8V54.0001H3.6C1.605 54.0001 0 52.3951 0 50.4001C0 48.4051 1.605 46.8001 3.6 46.8001H4.8V42.0001H3.6C1.605 42.0001 0 40.3951 0 38.4001C0 36.4051 1.605 34.8001 3.6 34.8001H4.8V30.0001H3.6C1.605 30.0001 0 28.3951 0 26.4001C0 24.4051 1.605 22.8001 3.6 22.8001H4.8V16.8001H3.6C1.605 16.8001 0 15.1951 0 13.2001C0 11.2051 1.605 9.6001 3.6 9.6001ZM16.8 9.6001H79.2V67.2001H16.8V9.6001ZM96 13.2001C96 15.1951 94.395 16.8001 92.4 16.8001H91.2V22.8001H92.4C94.395 22.8001 96 24.4051 96 26.4001C96 28.3951 94.395 30.0001 92.4 30.0001H91.2V34.8001H92.4C94.395 34.8001 96 36.4051 96 38.4001C96 40.3951 94.395 42.0001 92.4 42.0001H91.2V46.8001H92.4C94.395 46.8001 96 48.4051 96 50.4001C96 52.3951 94.395 54.0001 92.4 54.0001H91.2V60.0001H92.4C94.395 60.0001 96 61.6051 96 63.6001C96 65.5951 94.395 67.2001 92.4 67.2001H84V9.6001H92.4C94.395 9.6001 96 11.2051 96 13.2001Z" fill="white"/>
</svg>
