<svg width="64" height="64" viewBox="0 0 64 64" fill="none" xmlns="http://www.w3.org/2000/svg">
<path d="M5.33325 5.33325H58.6666" stroke="#004D7D" stroke-width="4" stroke-linecap="round" stroke-linejoin="round"/>
<path d="M50.6665 5.33325H13.3332C11.8604 5.33325 10.6665 6.52716 10.6665 7.99992V55.9999C10.6665 57.4727 11.8604 58.6666 13.3332 58.6666H50.6665C52.1393 58.6666 53.3332 57.4727 53.3332 55.9999V7.99992C53.3332 6.52716 52.1393 5.33325 50.6665 5.33325Z" stroke="#004D7D" stroke-width="4" stroke-linejoin="round"/>
<path d="M26.6665 42.6665H37.3332V58.6665H26.6665V42.6665Z" stroke="#004D7D" stroke-width="4" stroke-linecap="round" stroke-linejoin="round"/>
<path d="M20 16H22.6667" stroke="#004D7D" stroke-width="4" stroke-linecap="round"/>
<path d="M20 24H22.6667" stroke="#004D7D" stroke-width="4" stroke-linecap="round"/>
<path d="M30.6665 16H33.3332" stroke="#004D7D" stroke-width="4" stroke-linecap="round"/>
<path d="M30.6665 24H33.3332" stroke="#004D7D" stroke-width="4" stroke-linecap="round"/>
<path d="M41.3333 16H43.9999" stroke="#004D7D" stroke-width="4" stroke-linecap="round"/>
<path d="M41.3333 24H43.9999" stroke="#004D7D" stroke-width="4" stroke-linecap="round"/>
<path d="M5.33325 58.6665H58.6666" stroke="#004D7D" stroke-width="4" stroke-linecap="round" stroke-linejoin="round"/>
<path d="M37.3333 42.6665H40C40.736 42.6665 41.3466 42.0638 41.2053 41.3412C40.4693 37.5545 36.628 34.6665 32 34.6665C27.3733 34.6665 23.5306 37.5532 22.7946 41.3412C22.6533 42.0638 23.264 42.6665 24 42.6665H26.6666" stroke="#004D7D" stroke-width="4" stroke-linecap="round" stroke-linejoin="round"/>
</svg>
