<svg width="128" height="128" viewBox="0 0 128 128" fill="none" xmlns="http://www.w3.org/2000/svg">
<path d="M112 32C103.147 32 95.9998 39.1467 95.9998 48V69.3333C95.9998 72.2667 93.5998 74.6667 90.6665 74.6667V53.3333C90.6665 44.48 83.5198 37.3333 74.6665 37.3333H53.3332C44.4798 37.3333 37.3332 44.48 37.3332 53.3333H47.9998C47.9998 50.4 50.3998 48 53.3332 48H74.6665C77.5998 48 79.9998 50.4 79.9998 53.3333V58.6667H31.9998C20.2132 58.6667 10.6665 68.2133 10.6665 80V96H90.6665V85.3333C99.5198 85.3333 106.667 78.1867 106.667 69.3333V48C106.667 45.0667 109.067 42.6667 112 42.6667H117.333V32H112ZM79.9998 85.3333H21.3332V80C21.3332 74.1333 26.1332 69.3333 31.9998 69.3333H79.9998V85.3333Z" fill="white"/>
</svg>
