<svg width="72" height="73" viewBox="0 0 72 73" fill="none" xmlns="http://www.w3.org/2000/svg">
<path d="M31.5 13.5241C31.5 11.1372 32.4482 8.84798 34.136 7.16015C35.8239 5.47232 38.1131 4.52411 40.5 4.52411C42.8869 4.52411 45.1761 5.47232 46.864 7.16015C48.5518 8.84798 49.5 11.1372 49.5 13.5241H56.25C58.0402 13.5241 59.7571 14.2353 61.023 15.5011C62.2888 16.767 63 18.4839 63 20.2741V31.5241H58.5C57.3065 31.5241 56.1619 31.9982 55.318 32.8421C54.4741 33.686 54 34.8306 54 36.0241C54 37.2176 54.4741 38.3622 55.318 39.2061C56.1619 40.05 57.3065 40.5241 58.5 40.5241H63V51.7741C63 53.5643 62.2888 55.2812 61.023 56.5471C59.7571 57.813 58.0402 58.5241 56.25 58.5241H49.5C49.5 60.9111 48.5518 63.2002 46.864 64.8881C45.1761 66.5759 42.8869 67.5241 40.5 67.5241C38.1131 67.5241 35.8239 66.5759 34.136 64.8881C32.4482 63.2002 31.5 60.9111 31.5 58.5241H24.75C22.9598 58.5241 21.2429 57.813 19.977 56.5471C18.7112 55.2812 18 53.5643 18 51.7741V45.0241C15.6131 45.0241 13.3239 44.0759 11.636 42.3881C9.94821 40.7002 9 38.4111 9 36.0241C9 33.6372 9.94821 31.348 11.636 29.6601C13.3239 27.9723 15.6131 27.0241 18 27.0241V20.2741C18 18.4839 18.7112 16.767 19.977 15.5011C21.2429 14.2353 22.9598 13.5241 24.75 13.5241H31.5ZM40.5 9.02411C39.3065 9.02411 38.1619 9.49821 37.318 10.3421C36.4741 11.186 36 12.3306 36 13.5241V18.0241H24.75C24.1533 18.0241 23.581 18.2612 23.159 18.6831C22.7371 19.1051 22.5 19.6774 22.5 20.2741V31.5241H18C16.8065 31.5241 15.6619 31.9982 14.818 32.8421C13.9741 33.686 13.5 34.8306 13.5 36.0241C13.5 37.2176 13.9741 38.3622 14.818 39.2061C15.6619 40.05 16.8065 40.5241 18 40.5241H22.5V51.7741C22.5 52.3708 22.7371 52.9431 23.159 53.3651C23.581 53.7871 24.1533 54.0241 24.75 54.0241H36V58.5241C36 59.7176 36.4741 60.8622 37.318 61.7061C38.1619 62.55 39.3065 63.0241 40.5 63.0241C41.6935 63.0241 42.8381 62.55 43.682 61.7061C44.5259 60.8622 45 59.7176 45 58.5241V54.0241H56.25C56.8467 54.0241 57.419 53.7871 57.841 53.3651C58.2629 52.9431 58.5 52.3708 58.5 51.7741V45.0241C56.1131 45.0241 53.8239 44.0759 52.136 42.3881C50.4482 40.7002 49.5 38.4111 49.5 36.0241C49.5 33.6372 50.4482 31.348 52.136 29.6601C53.8239 27.9723 56.1131 27.0241 58.5 27.0241V20.2741C58.5 19.6774 58.2629 19.1051 57.841 18.6831C57.419 18.2612 56.8467 18.0241 56.25 18.0241H45V13.5241C45 12.3306 44.5259 11.186 43.682 10.3421C42.8381 9.49821 41.6935 9.02411 40.5 9.02411V9.02411Z" fill="#004D7D"/>
</svg>
