<svg width="96" height="97" viewBox="0 0 96 97" fill="none" xmlns="http://www.w3.org/2000/svg">
<path d="M46.1827 27.3616C45.848 27.3615 45.5206 27.4588 45.2403 27.6418C44.9601 27.8247 44.7392 28.0853 44.6047 28.3918C44.4221 28.8087 44.6391 29.2669 44.963 29.5873L46.6857 31.3101C46.8458 31.4705 47.0359 31.5978 47.2452 31.6846C47.4545 31.7715 47.6788 31.8162 47.9054 31.8162C48.132 31.8162 48.3564 31.7715 48.5657 31.6846C48.775 31.5978 48.9651 31.4705 49.1251 31.3101L50.8478 29.5873C51.1683 29.2669 51.3888 28.8087 51.2062 28.3918C51.0716 28.0853 50.8508 27.8247 50.5705 27.6418C50.2903 27.4588 49.9628 27.3615 49.6282 27.3616H46.1827Z" fill="white"/>
<path d="M23.7873 8.65285C23.7873 10.4962 24.3661 12.2051 25.3515 13.6074C22.2954 17.6248 20.3418 22.4829 20.3418 27.8854C20.3418 35.5205 23.4462 40.6266 28.4627 43.8206L5.17493 57.2647C2.85654 58.6009 1.14668 60.7842 0.404994 63.3552C-0.33669 65.9263 -0.0523954 68.6847 1.19808 71.0505C2.44856 73.4162 4.56776 75.2048 7.10995 76.0401C9.65214 76.8753 12.4192 76.6921 14.8291 75.5291C14.0227 77.4601 13.7331 79.5679 13.9886 81.6449C14.2442 83.7219 15.0361 85.6965 16.2865 87.3745L19.3702 91.5194C20.4932 93.0295 21.954 94.2557 23.6357 95.1002C25.3175 95.9446 27.1735 96.3837 29.0554 96.3823C30.9372 96.381 32.7926 95.9392 34.4732 95.0924C36.1538 94.2456 37.6128 93.0173 38.7336 91.5056C41.6801 92.5427 44.7817 93.0705 47.9054 93.0664C51.1338 93.0664 54.2313 92.5151 57.1082 91.4918C58.2278 93.0056 59.6864 94.2362 61.367 95.085C63.0476 95.9339 64.9036 96.3774 66.7865 96.3801C68.6693 96.3828 70.5266 95.9445 72.2096 95.1005C73.8926 94.2564 75.3547 93.03 76.4786 91.5194L79.5657 87.3745C80.8187 85.6929 81.6113 83.7135 81.8651 81.6319C82.1188 79.5502 81.8251 77.4383 81.0128 75.5049C83.3981 76.7068 86.1561 76.9386 88.7086 76.1517C91.2611 75.3648 93.4099 73.6204 94.7046 71.2841C95.9993 68.9479 96.3393 66.2011 95.6534 63.6197C94.9674 61.0382 93.3088 58.8225 91.0253 57.437L67.9993 43.3864C72.63 40.1787 75.469 35.1863 75.469 27.8854C75.469 22.4829 73.5155 17.6248 70.4594 13.6074C71.7715 11.7633 72.3051 9.47682 71.9448 7.24239C71.5845 5.00797 70.3592 3.00513 68.5339 1.66693C66.7086 0.328738 64.4299 -0.237276 62.1906 0.0912729C59.9513 0.419822 57.9313 1.61653 56.5673 3.42265C53.6524 2.34423 50.6859 1.76194 47.9054 1.76194C45.1249 1.76194 42.1584 2.34423 39.2436 3.42265C38.1497 1.99203 36.635 0.940232 34.9123 0.415155C33.1897 -0.109923 31.3458 -0.0818691 29.6399 0.495372C27.9341 1.07261 26.452 2.17001 25.4022 3.63324C24.3524 5.09648 23.7876 6.85196 23.7873 8.65285V8.65285ZM32.4009 3.48467C33.7653 3.48467 35.0057 4.01527 35.929 4.87663C32.8927 6.42088 30.1241 8.44268 27.7289 10.8648C27.3558 10.077 27.188 9.20762 27.2412 8.33755C27.2944 7.46748 27.5668 6.62499 28.033 5.88848C28.4993 5.15196 29.1442 4.54534 29.9079 4.12505C30.6716 3.70477 31.5292 3.48448 32.4009 3.48467V3.48467ZM65.1327 69.093C63.1805 69.9287 61.4851 71.2674 60.2195 72.9725L57.1323 77.1174C55.4885 79.3189 54.6494 82.0175 54.755 84.7629C52.6533 85.6725 50.3379 86.1755 47.9054 86.1755C45.4867 86.1755 43.1852 85.6794 41.0972 84.7801C41.2065 82.0289 40.3672 79.3237 38.7199 77.1174L35.6327 72.9725C34.3579 71.2553 32.6474 69.91 30.6782 69.0757V68.9483C30.6782 64.3793 32.4932 59.9975 35.7239 56.7667C38.9547 53.536 43.3365 51.721 47.9054 51.721C52.4744 51.721 56.8562 53.536 60.0869 56.7667C63.3177 59.9975 65.1327 64.3793 65.1327 68.9483V69.093V69.093ZM68.5781 8.65285C68.5781 9.4453 68.399 10.1964 68.082 10.8648C65.6868 8.44268 62.9181 6.42088 59.8818 4.87663C60.6178 4.18906 61.5386 3.73152 62.5312 3.56026C63.5237 3.389 64.5446 3.51148 65.4685 3.91264C66.3923 4.3138 67.1788 4.97616 67.7313 5.81831C68.2837 6.66045 68.5781 7.64566 68.5781 8.65285V8.65285ZM39.2918 23.9162C38.8349 23.9162 38.3967 23.7347 38.0736 23.4116C37.7506 23.0886 37.5691 22.6504 37.5691 22.1935C37.5691 21.7366 37.7506 21.2984 38.0736 20.9753C38.3967 20.6522 38.8349 20.4707 39.2918 20.4707C39.7487 20.4707 40.1869 20.6522 40.5099 20.9753C40.833 21.2984 41.0145 21.7366 41.0145 22.1935C41.0145 22.6504 40.833 23.0886 40.5099 23.4116C40.1869 23.7347 39.7487 23.9162 39.2918 23.9162ZM47.9054 42.8662C41.2454 42.8662 35.8463 37.2846 35.8463 32.5298C35.8463 27.7751 41.2454 23.9162 47.9054 23.9162C54.5655 23.9162 59.9645 27.7751 59.9645 32.5298C59.9645 37.2846 54.5655 42.8662 47.9054 42.8662ZM58.2418 22.1935C58.2418 22.6504 58.0603 23.0886 57.7372 23.4116C57.4141 23.7347 56.976 23.9162 56.5191 23.9162C56.0622 23.9162 55.624 23.7347 55.3009 23.4116C54.9778 23.0886 54.7963 22.6504 54.7963 22.1935C54.7963 21.7366 54.9778 21.2984 55.3009 20.9753C55.624 20.6522 56.0622 20.4707 56.5191 20.4707C56.976 20.4707 57.4141 20.6522 57.7372 20.9753C58.0603 21.2984 58.2418 21.7366 58.2418 22.1935ZM31.5878 76.1148L34.6749 80.2631C35.2154 80.9891 35.6075 81.8144 35.829 82.692C36.0506 83.5695 36.097 84.4821 35.9659 85.3776C35.8347 86.2731 35.5284 87.134 35.0645 87.9112C34.6006 88.6883 33.9882 89.3665 33.2623 89.9069C32.5363 90.4474 31.711 90.8396 30.8334 91.0611C29.9559 91.2826 29.0433 91.3291 28.1478 91.1979C27.2523 91.0667 26.3914 90.7605 25.6142 90.2966C24.8371 89.8327 24.1589 89.2203 23.6184 88.4943L20.5313 84.346C19.4402 82.8798 18.9763 81.0403 19.2415 79.232C19.5068 77.4238 20.4795 75.7949 21.9457 74.7039C23.4118 73.6128 25.2514 73.1489 27.0596 73.4141C28.8679 73.6794 30.4967 74.6521 31.5878 76.1182V76.1148ZM64.2644 76.1148C64.8051 75.389 65.4835 74.7769 66.2607 74.3133C67.038 73.8497 67.899 73.5438 68.7945 73.4129C69.69 73.282 70.6025 73.3289 71.4799 73.5507C72.3574 73.7725 73.1825 74.1649 73.9083 74.7056C74.634 75.2463 75.2462 75.9246 75.7097 76.7019C76.1733 77.4792 76.4793 78.3402 76.6102 79.2357C76.741 80.1312 76.6942 81.0437 76.4724 81.9211C76.2506 82.7985 75.8581 83.6237 75.3174 84.3494L72.2338 88.4943C71.6933 89.2203 71.0151 89.8327 70.238 90.2966C69.4608 90.7605 68.5999 91.0667 67.7044 91.1979C66.8089 91.3291 65.8963 91.2826 65.0188 91.0611C64.1412 90.8396 63.3159 90.4474 62.5899 89.9069C61.864 89.3665 61.2516 88.6883 60.7877 87.9112C60.3238 87.134 60.0175 86.2731 59.8863 85.3776C59.7552 84.4821 59.8016 83.5695 60.0232 82.692C60.2447 81.8144 60.6368 80.9891 61.1773 80.2631L64.2644 76.1182V76.1148Z" fill="white"/>
</svg>
