<svg width="72" height="73" viewBox="0 0 72 73" fill="none" xmlns="http://www.w3.org/2000/svg">
<path d="M36 0.0241089C39.8191 0.0241089 43.4818 1.70982 46.1823 4.7104C48.8829 7.71098 50.4 11.7806 50.4 16.0241C50.4 18.9441 49.716 21.6641 48.456 24.0241H57.6C61.02 24.0241 63.9 26.7041 64.62 30.2641C71.856 62.3041 72 63.1441 72 64.0241C72 66.1458 71.2414 68.1807 69.8912 69.681C68.5409 71.1813 66.7096 72.0241 64.8 72.0241H7.2C5.29044 72.0241 3.45909 71.1813 2.10883 69.681C0.758569 68.1807 0 66.1458 0 64.0241C0 63.1441 0.144001 62.3041 7.38 30.2641C8.1 26.7041 10.98 24.0241 14.4 24.0241H23.544C22.2571 21.6017 21.5853 18.837 21.6 16.0241C21.6 11.7806 23.1171 7.71098 25.8177 4.7104C28.5182 1.70982 32.1809 0.0241089 36 0.0241089V0.0241089ZM36 8.02411C34.0904 8.02411 32.2591 8.86696 30.9088 10.3673C29.5586 11.8675 28.8 13.9024 28.8 16.0241C28.8 18.1458 29.5586 20.1807 30.9088 21.681C32.2591 23.1813 34.0904 24.0241 36 24.0241C37.9096 24.0241 39.7409 23.1813 41.0912 21.681C42.4414 20.1807 43.2 18.1458 43.2 16.0241C43.2 13.9024 42.4414 11.8675 41.0912 10.3673C39.7409 8.86696 37.9096 8.02411 36 8.02411V8.02411Z" fill="#004D7D"/>
</svg>
